<svg width="512" height="512" viewBox="0 0 512 512" fill="none" xmlns="http://www.w3.org/2000/svg">
<path d="M310.492 334.064C310.492 339.484 309.54 344.538 307.636 349.226C305.878 353.913 303.241 357.941 299.726 361.311C295.771 365.119 290.717 368.122 284.564 370.319C278.412 372.37 271.161 373.396 262.812 373.396C256.22 373.396 249.774 372.517 243.476 370.759C237.177 369.001 231.61 365.998 226.776 361.75C221.796 357.648 217.768 352.082 214.691 345.051C211.615 337.873 210.077 329.011 210.077 318.464H148.773C148.773 336.042 151.483 351.13 156.903 363.728C162.323 376.179 169.574 386.506 178.656 394.709C187.592 402.912 197.919 409.211 209.638 413.605C221.356 417.854 233.441 420.563 245.893 421.735V464.802H280.829V421.735C294.599 420.417 307.05 417.561 318.183 413.166C329.315 408.625 338.837 402.619 346.747 395.148C354.657 387.678 360.736 378.815 364.984 368.562C369.232 358.161 371.356 346.516 371.356 333.625C371.356 319.562 369.013 307.404 364.325 297.15C359.784 286.75 353.266 277.595 344.77 269.685C336.127 261.921 325.8 255.109 313.788 249.25C301.776 243.244 288.373 237.458 273.578 231.892C263.764 228.376 255.561 224.934 248.969 221.564C242.377 218.049 237.104 214.387 233.148 210.578C229.047 206.77 226.117 202.668 224.359 198.273C222.748 193.732 221.942 188.605 221.942 182.893C221.942 177.18 222.748 171.906 224.359 167.072C226.117 162.238 228.754 157.99 232.27 154.328C235.785 150.812 240.253 148.103 245.673 146.198C251.239 144.147 257.758 143.122 265.229 143.122C271.674 143.122 277.533 144.147 282.807 146.198C288.227 148.249 292.841 151.252 296.649 155.207C300.897 159.748 304.193 165.534 306.537 172.565C308.881 179.597 310.053 187.8 310.053 197.175H371.137C371.137 182.526 369.086 169.343 364.984 157.624C361.029 145.759 355.39 135.432 348.065 126.643C340.595 118 331.586 110.969 321.039 105.549C310.492 100.129 298.627 96.54 285.443 94.7822V47.1016H250.287V94.3428C236.811 95.6611 224.579 98.6641 213.593 103.352C202.606 108.039 193.231 114.191 185.468 121.809C177.704 129.426 171.698 138.435 167.45 148.835C163.202 159.089 161.078 170.441 161.078 182.893C161.078 197.102 163.422 209.406 168.109 219.807C172.797 230.061 179.462 239.069 188.104 246.833C196.601 254.597 206.928 261.408 219.086 267.268C231.244 273.127 244.721 278.693 259.516 283.967C268.744 287.189 276.581 290.485 283.026 293.854C289.618 297.077 294.965 300.666 299.066 304.621C303.021 308.576 305.878 312.971 307.636 317.805C309.54 322.492 310.492 327.912 310.492 334.064Z" fill="#ADFF00"/>
</svg>
